# xmcd
#
# Track frame offsets:
#	150
#	14452
#	30730
#	53135
#	69842
#
# Disc length: 1244 seconds
#
# Revision: 0
# Processed by: cddbd v1.4PL0 Copyright (c) Steve Scherf et al.
# Submitted via: EasyCDDAExtractor 4.5.0.2
#
DISCID=3704da05
DTITLE=Well Hungarians - Framed
DYEAR=2000
DGENRE=Southern Rock
TTITLE0=Hands On You
TTITLE1=Just A Little Bit
TTITLE2=Back Then
TTITLE3=Sunday Morning
TTITLE4=Momma Never
EXTD=
EXTT0=
EXTT1=
EXTT2=
EXTT3=
EXTT4=
PLAYORDER=
